<?xml version="1.0" encoding="UTF-8"?>
<svg width="536px" height="76px" viewBox="0 0 536 76" version="1.1" xmlns="http://www.w3.org/2000/svg" xmlns:xlink="http://www.w3.org/1999/xlink">
    <title>coderpad_logo_reverse_white</title>
    <g id="Page-1" stroke="none" stroke-width="1" fill="none" fill-rule="evenodd">
        <g id="coderpad_logo_reverse_white" transform="translate(0.140000, 0.200000)" fill="#FFFFFF" fill-rule="nonzero">
            <g id="Group" transform="translate(86.620000, 0.000000)">
                <path d="M449.1,73.5 L429,74.25 L428.1,69.15 C424.2,73.05 419.25,75.15 413.7,75.15 C407.1,75.15 402.3,72.9 398.85,68.4 C395.55,63.9 394.05,57.75 394.05,49.5 C394.05,40.5 396.3,33.6 400.8,28.65 C405.3,23.85 412.05,21.3 421.05,21.3 C423.15,21.3 425.25,21.45 427.2,22.2 L427.2,10.2 L419.55,8.4 L419.55,0.75 L437.4,0 L439.2,2.1 L441,3.75 L441,63.75 L448.65,65.55 L449.1,73.5 L449.1,73.5 Z M427.35,58.5 L427.35,34.2 C425.7,33.3 423.45,32.7 419.85,32.7 C412.5,32.7 408.75,38.1 408.75,48.9 C408.75,59.1 411.75,64.05 417.9,64.05 C419.7,64.05 421.5,63.75 422.7,62.55 C424.35,61.65 425.4,60.75 426,59.85 L427.35,58.5 Z" id="Shape"></path>
                <path d="M42.3,19.05 C39.3,17.85 35.7,17.55 31.65,17.55 C21.15,17.55 15.9,25.2 15.9,40.95 C15.9,55.5 21.3,62.85 32.25,62.85 C35.1,62.85 38.1,62.25 40.8,61.2 C43.8,60 46.2,58.95 47.85,57.9 L50.1,56.25 L55.35,64.95 C55.2,65.1 54.6,65.7 54.3,66.15 C53.85,66.45 52.65,67.5 51,68.85 C49.35,70.05 47.4,71.1 45.75,72 C43.95,72.9 41.55,73.65 38.85,74.4 C36,75.15 33.45,75.6 30.6,75.6 C20.85,75.6 13.35,72.6 7.95,66.9 C2.7,61.05 0,52.65 0,41.7 C0,30.6 3,21.9 8.85,15.45 C14.7,9.15 22.35,5.85 32.4,5.85 C35.7,5.85 39.45,6.15 43.05,7.05 C46.65,7.95 49.65,8.55 51.6,9.3 L54.6,10.5 L53.85,28.5 L44.55,28.5 L42.3,19.05 Z" id="Path"></path>
                <path d="M87.6,21.75 C95.25,21.75 101.1,24 105.45,28.5 C109.65,33 111.9,39.3 111.9,47.4 C111.9,56.1 109.65,62.55 105,67.65 C100.35,72.75 94.2,75 86.4,75 C70.35,75 62.1,66.3 62.1,48.75 C62.1,40.05 64.35,33.6 69,28.95 C73.2,24 79.8,21.75 87.6,21.75 Z M87,32.55 C83.4,32.55 80.55,33.75 79.05,36.15 C77.55,38.55 76.35,42.45 76.35,48.3 C76.35,53.7 77.1,57.9 78.6,60.3 C80.25,63 82.8,64.05 86.25,64.05 C89.85,64.05 92.25,62.85 93.9,60.3 C95.55,57.9 96.3,53.55 96.3,48 C96.3,42.75 95.55,39 94.05,36.6 C92.85,33.9 90.45,32.55 87,32.55 Z" id="Shape"></path>
                <path d="M172.95,73.5 L152.85,74.25 L152.1,69.15 C148.2,73.05 143.25,75.15 137.7,75.15 C131.1,75.15 126.3,72.9 122.85,68.4 C119.55,63.9 118.05,57.75 118.05,49.5 C118.05,40.5 120.3,33.6 124.8,28.65 C129.3,23.85 136.05,21.3 145.05,21.3 C147.15,21.3 149.25,21.45 151.2,22.2 L151.2,10.2 L143.55,8.4 L143.55,0.75 L161.55,0 L163.65,2.1 L165.3,3.75 L165.3,63.75 L172.95,65.55 L172.95,73.5 L172.95,73.5 Z M151.05,58.5 L151.05,34.2 C149.4,33.3 146.85,32.7 143.7,32.7 C136.35,32.7 132.6,38.1 132.6,48.9 C132.6,59.1 135.6,64.05 141.75,64.05 C143.4,64.05 145.35,63.75 146.85,62.55 C148.5,61.65 149.55,60.75 150.15,59.85 L151.05,58.5 Z" id="Shape"></path>
                <path d="M224.55,51.15 L192.9,51.45 C193.05,55.35 194.4,58.65 196.5,60.6 C198.6,62.7 201.15,63.9 204.3,63.9 C206.55,63.9 209.1,63.6 211.8,62.7 C214.5,61.8 216.6,61.2 217.95,60.45 L220.2,59.25 L224.4,66.9 C223.65,67.5 222.75,68.25 221.4,69 C220.05,69.9 217.5,71.1 213.75,72.6 C209.85,74.1 206.25,74.85 202.65,74.85 C194.55,74.85 188.4,72.6 184.05,68.1 C179.85,63.6 177.6,57.3 177.6,49.2 C177.6,40.8 179.85,34.05 184.35,28.95 C188.85,24.15 195.15,21.45 203.1,21.45 C210.15,21.45 215.4,23.55 219.15,27.45 C222.9,31.35 224.85,37.05 224.85,43.95 L224.55,51.15 Z M202.35,32.7 C199.65,32.7 197.7,33.6 195.9,35.4 C194.1,37.2 193.2,39.6 192.9,42.45 L210,42.45 C210,36.15 207.6,32.7 202.35,32.7 Z" id="Shape"></path>
                <path d="M231,23.4 L250.8,22.65 L251.55,29.25 C251.85,28.65 252.6,27.9 253.65,27.15 C254.7,26.4 256.35,25.05 258.45,23.85 C260.7,22.5 262.95,21.75 264.9,21.75 C266.4,21.75 267.9,21.9 269.4,22.2 C270.9,22.5 272.1,22.8 272.55,23.1 L273.45,23.4 L272.7,41.55 L264.45,41.55 L262.95,33.3 C261.3,33.3 259.65,33.75 257.85,34.65 C256.05,35.55 254.85,36.3 253.95,37.2 L252.6,38.55 L252.6,64.05 L261.75,66.3 L261.75,73.95 L231,73.95 L231,66.3 L238.65,64.05 L238.65,32.85 L231,31.05 L231,23.4 L231,23.4 Z" id="Path"></path>
                <path d="M307.8,65.7 L307.8,73.95 L278.7,73.95 L278.7,65.7 L285.75,63.45 L285.75,18 L278.7,15.15 L278.7,7.35 L300.6,6.9 L309.75,6.9 C317.1,6.9 322.65,8.55 326.85,12.3 C331.05,15.9 333,20.7 333,27.15 C333,34.95 330.75,40.95 325.8,45 C321.15,48.9 314.4,51 305.55,51 L300.3,51 L300.3,63.75 L307.8,65.7 Z M300.45,18.15 L300.45,39.45 L305.55,39.45 C309.45,39.45 312.75,38.55 314.7,36.6 C316.8,34.8 317.85,32.1 317.85,28.8 C317.85,25.65 316.95,22.95 315.15,21.15 C313.35,19.35 310.95,18.15 307.8,18.15 L300.45,18.15 L300.45,18.15 Z" id="Shape"></path>
                <path d="M389.1,73.5 L370.2,74.25 L368.55,68.1 C367.95,68.4 367.2,69.3 366.3,70.2 C365.4,71.1 363.45,72 360.6,73.35 C357.75,74.7 355.35,75.45 352.95,75.45 C348.3,75.45 344.7,74.1 342.15,71.55 C339.45,69 338.25,65.25 338.25,60.45 C338.25,49.95 345.9,44.7 361.2,44.7 L367.8,44.7 L367.8,39.45 C367.8,34.65 365.4,32.4 360.45,32.4 C358.95,32.4 357.6,32.55 356.1,32.7 C354.6,32.85 353.7,33.15 352.95,33.45 L352.05,33.6 L350.55,39.75 L342,39.75 L341.25,25.5 C348.9,22.8 355.95,21.6 361.95,21.6 C369.3,21.6 374.25,23.1 377.4,25.8 C380.4,28.5 381.9,33.45 381.9,40.35 L381.9,64.05 L388.95,65.7 L389.1,73.5 L389.1,73.5 Z M352.05,58.65 C352.05,62.55 353.85,64.5 357.75,64.5 C359.25,64.5 360.75,64.05 362.4,63 C364.05,61.8 365.4,61.2 366.3,60.15 L367.8,58.8 L367.8,52.5 L362.4,52.5 C358.65,52.5 355.95,52.95 354.6,54 C352.8,54.9 352.05,56.55 352.05,58.65 Z" id="Shape"></path>
            </g>
            <path d="M64.12,2.78 L56.62,2.78 L5.62,2.78 C2.47,2.78 0,5.18 0,8.4 L0,59.02 L0,66.74 C0,69.96 2.4,72.36 5.62,72.36 L13.12,72.36 L64.12,72.36 C67.27,72.36 69.7400311,69.96 69.7400311,66.74 L69.7400311,16.12 L69.7400311,8.4 C69.75,5.18 67.35,2.78 64.12,2.78 Z M25.56,34.46 L14.27,38.53 L25.56,42.5 L25.56,48.05 L8.51,40.82 L8.51,36.14 L25.56,28.91 L25.56,34.46 Z M32.08,53.24 L27.82,53.24 L38.44,21.92 L42.7,21.92 L32.08,53.24 Z M61.24,40.82 L43.99,48.06 L43.99,42.54 L55.5,38.46 L43.99,34.44 L43.99,28.93 L61.24,36.16 L61.24,40.82 Z" id="Shape"></path>
        </g>
    </g>
</svg>
